<?xml version="1.0" encoding="utf-8"?>
<!-- Generator: Adobe Illustrator 25.3.1, SVG Export Plug-In . SVG Version: 6.00 Build 0)  -->
<svg version="1.1" id="Layer_1" xmlns="http://www.w3.org/2000/svg" xmlns:xlink="http://www.w3.org/1999/xlink" width="300" height="150" x="0px" y="0px"
	 viewBox="0 0 300 112.5" style="enable-background:new 0 0 300 112.5;" xml:space="preserve">
<style type="text/css">
	.st0{fill:#E48925;}
	.st1{fill:#FAA229;}
	.st2{fill:#3A3835;}
	.st3{fill:#FFFFFF;}
</style>
<g id="Layer_2_1_">
</g>
<g id="Layer_1_1_">
	<g>
		<path class="st0" d="M266.74,83.61c2.05-0.17,4.1,0.16,6.15-0.22c4.68-0.88,8.26-4.91,9.16-10.42c0.02-0.14,0.11-0.26,0.17-0.39
			c0-1.3,0-2.6,0-3.9c-0.4-1.27-0.63-2.61-1.18-3.83c-1.32-2.98-3.34-5.01-5.96-6.21c-1.28-0.59-2.12-1.57-2.62-3.12
			c-2.19-6.81-6.26-11.24-12.18-13.26c-1.68-0.57-3.41-0.72-5.16-0.67c-2.02,0.07-3.43-0.94-4.44-3.1
			c-4.1-8.74-10.32-14.03-18.68-15.72c-5-1.01-9.79-0.14-14.42,2.21c-0.38,0.19-0.8,0.32-1.05,0.78c0.3,0.13,0.61,0.23,0.89,0.41
			c4.22,2.65,7.46,6.52,9.94,11.34c0.67,1.3,1,2.92,2.41,3.57c0.9,0.41,1.79,0.55,2.73,0.53c3.36-0.08,6.49,0.9,9.36,2.95
			c3.46,2.48,6.05,5.9,7.45,10.43c0.59,1.91,1.6,3.12,3.18,3.84c4.16,1.91,7.5,7.44,6.7,13.49c-0.72,5.44-3.36,8.89-7.67,10.67
			c-0.54,0.22-1.16,0.11-1.63,0.59c0.06,0.02,0.13,0.03,0.19,0.05c4.51,0,9.03,0,13.54,0C264.66,83.61,265.7,83.61,266.74,83.61z"/>
		<path class="st1" d="M249.89,83.57c0.47-0.49,1.09-0.37,1.63-0.59c4.32-1.78,6.95-5.23,7.67-10.67c0.8-6.05-2.54-11.58-6.7-13.49
			c-1.58-0.72-2.59-1.93-3.18-3.84c-1.4-4.53-3.99-7.96-7.45-10.43c-2.87-2.05-6-3.03-9.36-2.95c-0.94,0.02-1.83-0.12-2.73-0.53
			c-1.41-0.65-1.75-2.27-2.41-3.57c-2.48-4.82-5.71-8.69-9.94-11.34c-0.28-0.18-0.59-0.27-0.89-0.41c-1.7,0.69-3.12,1.93-4.5,3.24
			c-2.75,2.6-4.97,5.73-6.7,9.37c-0.76,1.58-1.96,2.39-3.6,2.36c-5.16-0.08-9.7,1.96-13.35,6.29c-2.86,3.4-4.62,7.55-5.12,12.41
			c-0.73,7.07,1.19,13.01,5.37,17.96c2.34,2.78,5.21,4.57,8.43,5.53c0.19,0.06,0.36,0.15,0.54,0.23c0.97,0.15,1.94,0.31,2.9,0.46
			c4.58,0,9.16,0.01,13.74,0.01c0.97,0,1.94,0,2.91,0c4.52,0,9.03,0,13.55,0c0.97,0,1.94,0,2.91,0c4.52,0,9.03,0,13.55,0
			C248.08,83.59,248.98,83.58,249.89,83.57z"/>
	</g>
	<g>
		<path class="st2" d="M59.35,75.96h-5.91v-8H32.67v8h-5.91V59.67c0-2.38,0.41-4.57,1.23-6.57c0.82-2,1.95-3.72,3.41-5.16
			c1.45-1.44,3.17-2.56,5.16-3.36c1.98-0.8,4.15-1.2,6.5-1.2h13.32c0.41,0,0.8,0.08,1.16,0.23c0.36,0.15,0.68,0.36,0.95,0.64
			c0.27,0.27,0.48,0.59,0.64,0.95c0.15,0.36,0.23,0.75,0.23,1.16L59.35,75.96L59.35,75.96z M32.67,62.06h20.77V49.29H43.06
			c-0.18,0-0.57,0.03-1.15,0.08c-0.58,0.05-1.26,0.19-2.02,0.4c-0.77,0.21-1.57,0.54-2.42,0.98c-0.85,0.44-1.63,1.05-2.34,1.82
			c-0.71,0.77-1.3,1.74-1.76,2.9s-0.69,2.56-0.69,4.22V62.06L32.67,62.06z"/>
		<path class="st2" d="M92.37,67.67c0,1.01-0.13,1.93-0.39,2.74c-0.26,0.81-0.6,1.52-1.02,2.14c-0.42,0.61-0.92,1.14-1.48,1.57
			c-0.56,0.43-1.15,0.78-1.76,1.06c-0.61,0.27-1.24,0.47-1.86,0.6c-0.63,0.13-1.22,0.19-1.78,0.19H73.42
			c-1.01,0-1.92-0.13-2.73-0.39c-0.8-0.26-1.51-0.6-2.12-1.03c-0.61-0.43-1.14-0.93-1.57-1.49c-0.43-0.56-0.78-1.15-1.06-1.76
			c-0.27-0.61-0.47-1.23-0.6-1.86c-0.13-0.63-0.19-1.22-0.19-1.76v-8c0-1.51,0.28-2.8,0.83-3.85c0.55-1.05,1.24-1.91,2.07-2.57
			c0.83-0.66,1.72-1.13,2.69-1.42c0.97-0.29,1.86-0.43,2.68-0.43h10.66v5.91H73.46c-0.79,0-1.39,0.2-1.8,0.6s-0.61,0.99-0.61,1.76
			v7.95c0,0.8,0.2,1.41,0.6,1.82c0.4,0.41,0.99,0.61,1.76,0.61h10.66c0.8,0,1.4-0.2,1.8-0.61c0.39-0.41,0.59-1,0.59-1.77V41.01h5.91
			L92.37,67.67L92.37,67.67z"/>
		<path class="st2" d="M119.93,75.96h-5.91V59.67c0-0.77-0.2-1.36-0.61-1.76s-1.01-0.6-1.82-0.6h-7.68v18.66h-5.91V54.33
			c0-0.41,0.08-0.79,0.23-1.15s0.36-0.67,0.64-0.93c0.27-0.27,0.59-0.47,0.95-0.63s0.75-0.23,1.16-0.23h10.66
			c0.82,0,1.7,0.14,2.64,0.43c0.94,0.29,1.83,0.75,2.68,1.39V51.4h8c0.56,0,1.15,0.06,1.77,0.19c0.62,0.13,1.24,0.33,1.85,0.6
			c0.61,0.27,1.2,0.63,1.76,1.06c0.56,0.43,1.05,0.95,1.48,1.57c0.42,0.61,0.76,1.32,1.02,2.12c0.26,0.8,0.39,1.71,0.39,2.73v16.29
			h-5.91V59.67c0-0.77-0.19-1.36-0.58-1.76s-0.98-0.6-1.78-0.6h-5.32c0.2,0.73,0.29,1.51,0.29,2.36L119.93,75.96L119.93,75.96z"/>
		<path class="st2" d="M144.66,46.35h-5.91v-5.34h5.91V46.35z M144.66,75.96h-5.91V51.4h5.91V75.96z"/>
		<path class="st2" d="M177.54,75.96h-5.91V62.33c0-0.77-0.13-1.47-0.4-2.08c-0.27-0.61-0.63-1.14-1.08-1.58
			c-0.45-0.44-0.99-0.78-1.6-1.01s-1.28-0.35-1.99-0.35h-10.34v18.66h-5.91V54.33c0-0.41,0.08-0.79,0.23-1.15s0.36-0.67,0.64-0.93
			c0.27-0.27,0.59-0.47,0.95-0.63c0.36-0.15,0.75-0.23,1.16-0.23h13.32c0.74,0,1.53,0.08,2.35,0.25c0.83,0.17,1.64,0.44,2.45,0.81
			c0.81,0.37,1.58,0.84,2.32,1.41c0.74,0.57,1.39,1.26,1.95,2.07c0.57,0.81,1.02,1.75,1.35,2.81c0.33,1.06,0.5,2.26,0.5,3.59
			L177.54,75.96L177.54,75.96z"/>
	</g>
	<g>
		<path class="st3" d="M230.62,67.87c-0.81,1.14-1.62,2.27-2.43,3.41c-2.13,2.01-4.56,3.33-7.2,4.18
			c-7.04,0.93-14.1,0.21-21.15,0.44c-0.68,0.02-0.88-0.3-0.87-1.03c0.01-5.56,0.01-11.13-0.01-16.69c0-0.82,0.26-1.1,0.98-1.09
			c2.12,0.04,4.25,0.05,6.37,0c0.77-0.02,0.92,0.34,0.91,1.12c-0.03,2.86,0.01,5.72-0.02,8.58c-0.01,0.9,0.17,1.37,1.07,1.33
			c3.27-0.12,6.55,0.18,9.82-0.2c3.6-0.41,6.09-3.52,6.1-7.35c0.03-7.54,3.23-12.09,9.56-13.92c6.58-1.91,13.23-1.95,19.78,0.28
			c5.93,2.02,8.71,6.46,8.83,13.57c0.06,3.76-0.53,7.27-2.75,10.18c-1.93,2.52-4.46,3.86-7.25,4.58
			c-6.76,1.77-13.49,1.77-20.15-0.69c-0.31-0.11-0.6-0.26-0.91-0.37c-0.86-0.32-0.98-0.73-0.25-1.47c0.44-0.44,0.73-1.07,1.09-1.62
			c0.76-1.02,1.37-2.16,1.84-3.38c0.18-0.46,0.31-0.88,0.85-0.76c0.52,0.58,1.2,0.75,1.86,0.9c4.07,0.91,8.17,0.88,12.24,0.23
			c3.53-0.56,4.83-1.98,5.22-5.78c0.51-5.01-0.78-7.84-4.9-8.56c-2.46-0.43-4.94-0.63-7.43-0.44c-0.37,0.03-0.73,0.05-1.1,0.08
			c-0.46,0.07-0.93,0.13-1.39,0.2c-0.46,0.02-0.92,0.03-1.38,0.04c-4.47,1.01-5.46,2.35-5.56,7.53c-0.01,0.31-0.01,0.63-0.01,0.94
			C231.96,64.12,231.48,66.07,230.62,67.87z"/>
		<path class="st3" d="M204.09,45.96c4.83,0,9.67-0.06,14.5,0.04c2.07,0.04,4.06,0.74,5.97,1.69c0.5,0.25,0.78,0.47,0.24,1.09
			c-1.42,1.64-2.28,3.69-2.87,5.87c-0.22,0.82-0.41,0.87-0.99,0.48c-1.33-0.92-2.79-1.25-4.34-1.25c-5.8,0.03-11.6,0.02-17.41,0.02
			c-0.16-0.69,0.55-0.94,0.6-1.53c0.15-0.22,0.31-0.45,0.46-0.67C201.53,49.79,202.81,47.87,204.09,45.96z"/>
	</g>
</g>
</svg>
